<svg width="48" height="47" viewBox="0 0 48 47" fill="none" xmlns="http://www.w3.org/2000/svg">
<path d="M46.3804 28.9704C43.2921 41.3579 30.7455 48.8967 18.3565 45.8077C5.97269 42.7194 -1.56613 30.172 1.5235 17.7855C4.61041 5.39658 17.157 -2.14281 29.5422 0.945465C41.9303 4.03374 49.4687 16.5825 46.3801 28.9706L46.3803 28.9704H46.3804Z" fill="#F3BA2F"/>
<path fill-rule="evenodd" clip-rule="evenodd" d="M23.9542 14.929L17.9666 20.9166L17.9667 20.9164L14.4829 17.4325L23.9542 7.96124L33.4285 17.4353L29.9446 20.9192L23.9542 14.929ZM12.0227 19.8922L8.53873 23.3767L12.0225 26.86L15.5065 23.3759L12.0227 19.8922ZM17.9666 25.8371L23.9542 31.8244L29.9445 25.8343L33.4303 29.3163L33.4285 29.3182L23.9542 38.7922L14.4829 29.3209L14.478 29.316L17.9666 25.8371ZM35.8859 19.8941L32.4019 23.3782L35.8858 26.8619L39.3697 23.3779L35.8859 19.8941Z" fill="white"/>
<path d="M27.4877 23.3749H27.4892L23.9542 19.8397L21.3413 22.4518L21.0412 22.7521L20.4221 23.3713L20.4172 23.3761L20.4221 23.3811L23.9542 26.9138L27.4894 23.3786L27.4911 23.3766L27.4879 23.3749" fill="white"/>
</svg>
