<svg width="146" height="74" viewBox="0 0 146 74" fill="none" xmlns="http://www.w3.org/2000/svg">
<path d="M1.90878 63.324H6.17387C6.73355 63.324 7.26214 63.0666 7.60728 62.626L9.52158 60.1823C10.1961 59.3212 11.4722 59.245 12.2445 60.0196L17.7184 65.51C18.0601 65.8527 18.524 66.0453 19.0079 66.0453H25.1196C25.5053 66.0453 25.881 65.9228 26.1927 65.6955L28.1023 64.3025C28.8623 63.7481 29.9195 63.8639 30.5414 64.5696L32.4808 66.7702C33.1282 67.5048 34.2406 67.5959 34.9989 66.9764L43.94 59.6715C44.6983 59.052 45.8108 59.1431 46.4581 59.8777L48.0193 61.6491C48.7814 62.514 50.1452 62.4619 50.8392 61.5415L54.2506 57.017C54.4932 56.6953 54.8355 56.4631 55.2241 56.3568L61.1562 54.7341C61.7377 54.5751 62.2028 54.1385 62.3982 53.5681L65.0681 45.7778C65.2464 45.2576 65.6502 44.8459 66.1667 44.6575L70.2762 43.1587C70.7067 43.0016 71.0621 42.6881 71.2717 42.2805L72.1885 40.4971C72.8533 39.2038 74.6912 39.1732 75.3987 40.4436L79.0227 46.9509C79.4699 47.7539 80.4455 48.0977 81.2974 47.7525L87.3842 45.2858C87.8993 45.0771 88.2908 44.6446 88.4474 44.1114L93.3057 27.5729C93.5797 26.6401 94.5383 26.0871 95.483 26.3168L98.0594 26.9433C98.848 27.1351 99.6683 26.7818 100.071 26.0771L103.045 20.8709C103.583 19.9281 104.822 19.6631 105.699 20.3029L106.72 21.0477C107.279 21.4558 108.071 21.268 108.387 20.6521V20.6521C108.761 19.9249 109.761 19.8248 110.271 20.4634L113.555 24.5694C114.47 25.7133 116.292 25.3639 116.719 23.9628L120.702 10.887C121.023 9.8339 122.198 9.30415 123.199 9.76083L127.613 11.7732C128.308 12.0898 129.126 11.9398 129.663 11.3975L134.595 6.41521C134.751 6.25788 134.934 6.13028 135.136 6.03866L144.846 1.62511" stroke="#16C784" stroke-width="1.82085" stroke-linecap="round"/>
<path fill-rule="evenodd" clip-rule="evenodd" d="M145.057 2.86067C144.68 2.74103 144.268 2.74566 143.885 2.88507L135.215 6.03759C134.962 6.12957 134.733 6.27646 134.543 6.46772L129.663 11.3976C129.126 11.9398 128.308 12.0898 127.613 11.7732L123.199 9.76086C122.198 9.30418 121.023 9.83394 120.702 10.887L116.719 23.9629C116.292 25.364 114.47 25.7133 113.555 24.5694L110.271 20.4634C109.761 19.8248 108.761 19.9249 108.387 20.6522C108.071 21.268 107.279 21.4558 106.72 21.0477L105.699 20.303C104.822 19.6631 103.583 19.9282 103.045 20.8709L100.071 26.0772C99.6682 26.7818 98.8479 27.1351 98.0594 26.9434L95.4829 26.3169C94.5382 26.0872 93.5797 26.6402 93.3057 27.573L88.4473 44.1115C88.2907 44.6446 87.8992 45.0771 87.3842 45.2858L81.2973 47.7525C80.4455 48.0978 79.4699 47.754 79.0226 46.9509L75.3986 40.4436C74.6911 39.1732 72.8533 39.2038 72.1884 40.4971L71.2716 42.2806C71.0621 42.6881 70.7066 43.0017 70.2761 43.1587L66.1667 44.6575C65.6501 44.8459 65.2463 45.2577 65.0681 45.7778L62.3982 53.5682C62.2027 54.1385 61.7376 54.5751 61.1561 54.7342L55.224 56.3569C54.8355 56.4632 54.4931 56.6953 54.2506 57.017L50.8392 61.5415C50.1452 62.4619 48.7814 62.514 48.0192 61.6492L46.3461 59.7507C45.7454 59.0691 44.7342 58.9346 43.9762 59.4355L34.6744 65.5821C34.0505 65.9944 33.238 65.9833 32.6256 65.5541L30.5098 64.0713C29.8722 63.6244 29.0208 63.6324 28.3917 64.0913L26.1926 65.6955C25.881 65.9228 25.5053 66.0453 25.1195 66.0453H19.0079C18.524 66.0453 18.06 65.8527 17.7184 65.51L12.2444 60.0196C11.4721 59.245 10.1961 59.3213 9.52153 60.1823L7.60723 62.626C7.26209 63.0666 6.7335 63.324 6.17382 63.324H0.998352V71.7279C0.998352 72.7336 1.81357 73.5488 2.8192 73.5488H145.057V2.86067Z" fill="url(#paint0_linear_40_92)"/>
<defs>
<linearGradient id="paint0_linear_40_92" x1="77.4742" y1="6.17723" x2="77.4742" y2="73.5487" gradientUnits="userSpaceOnUse">
<stop stop-color="#61FF00" stop-opacity="0.2"/>
<stop offset="1" stop-color="#74FF06" stop-opacity="0"/>
</linearGradient>
</defs>
</svg>
