<svg width="87" height="44" viewBox="0 0 87 44" fill="none" xmlns="http://www.w3.org/2000/svg">
<path fill-rule="evenodd" clip-rule="evenodd" d="M86.5439 0.8963C86.3174 0.824441 86.0698 0.827217 85.8396 0.910931L80.634 2.80386C80.4822 2.85909 80.3444 2.94729 80.2307 3.06213L77.3 6.02225C76.9776 6.34786 76.4864 6.43791 76.0695 6.24783L73.4191 5.03949C72.8177 4.76528 72.1123 5.08337 71.9197 5.7157L69.5279 13.5671C69.2716 14.4084 68.1774 14.6181 67.6281 13.9313L65.6565 11.4659C65.3499 11.0824 64.7498 11.1425 64.5254 11.5792C64.3353 11.949 63.8599 12.0617 63.524 11.8167L62.9109 11.3695C62.3843 10.9853 61.6406 11.1444 61.3172 11.7105L59.5316 14.8366C59.2899 15.2597 58.7974 15.4718 58.3239 15.3567L56.7769 14.9805C56.2096 14.8426 55.6341 15.1747 55.4696 15.7348L52.5524 25.6653C52.4583 25.9854 52.2232 26.2451 51.914 26.3704L48.2592 27.8516C47.7477 28.0589 47.1619 27.8524 46.8933 27.3702L44.7173 23.463C44.2925 22.7001 43.1889 22.7185 42.7897 23.495L42.2392 24.5659C42.1134 24.8106 41.9 24.9989 41.6415 25.0932L39.174 25.9932C38.8638 26.1063 38.6214 26.3535 38.5143 26.6659L36.9112 31.3436C36.7938 31.686 36.5146 31.9482 36.1654 32.0437L32.6035 33.018C32.3702 33.0819 32.1646 33.2213 32.019 33.4144L29.9706 36.1311C29.5539 36.6838 28.735 36.7151 28.2773 36.1958L27.2727 35.0559C26.9121 34.6466 26.3049 34.5658 25.8497 34.8666L20.2645 38.5573C19.8899 38.8049 19.4019 38.7982 19.0342 38.5405L17.7639 37.6501C17.381 37.3818 16.8698 37.3866 16.492 37.6622L15.1716 38.6254C14.9845 38.7619 14.7589 38.8354 14.5272 38.8354H10.8575C10.567 38.8354 10.2884 38.7198 10.0832 38.514L6.79639 35.2173C6.33268 34.7522 5.56645 34.798 5.16144 35.315L4.01199 36.7823C3.80476 37.0469 3.48736 37.2015 3.1513 37.2015H0.0437012V42.2476C0.0437012 42.8514 0.533203 43.3409 1.13703 43.3409H86.5439V0.8963Z" fill="url(#paint0_linear_56_226)"/>
<defs>
<linearGradient id="paint0_linear_56_226" x1="45.9635" y1="2.8877" x2="45.9635" y2="43.3409" gradientUnits="userSpaceOnUse">
<stop stop-color="#61FF00" stop-opacity="0.2"/>
<stop offset="1" stop-color="#74FF06" stop-opacity="0"/>
</linearGradient>
</defs>
</svg>
