<svg width="51" height="51" viewBox="0 0 51 51" fill="none" xmlns="http://www.w3.org/2000/svg">
<path fill-rule="evenodd" clip-rule="evenodd" d="M25.3763 50.7527C39.3914 50.7527 50.7527 39.3913 50.7527 25.3763C50.7527 11.3614 39.3914 0 25.3763 0C11.3614 0 0 11.3614 0 25.3763C0 39.3913 11.3614 50.7527 25.3763 50.7527ZM29.2932 19.6065C31.4562 17.4433 31.4562 13.9361 29.2932 11.7729C27.13 9.60975 23.6228 9.60975 21.4596 11.7729C19.2965 13.9361 19.2965 17.4433 21.4596 19.6065L25.3763 23.5232L29.2932 19.6065ZM31.1463 29.2932C33.3095 31.4564 36.8166 31.4564 38.9798 29.2932C41.1429 27.13 41.1429 23.6228 38.9798 21.4596C36.8166 19.2965 33.3095 19.2965 31.1463 21.4596L27.2296 25.3764L31.1463 29.2932ZM29.2932 38.9798C31.4562 36.8166 31.4562 33.3095 29.2932 31.1463L25.3763 27.2296L21.4596 31.1463C19.2965 33.3095 19.2965 36.8166 21.4596 38.9798C23.6228 41.143 27.13 41.143 29.2932 38.9798ZM11.7729 29.2932C9.60977 27.13 9.60977 23.6228 11.7729 21.4596C13.9361 19.2965 17.4433 19.2965 19.6065 21.4596L23.5232 25.3764L19.6065 29.2932C17.4433 31.4564 13.9361 31.4564 11.7729 29.2932Z" fill="#592ADD"/>
</svg>
