<svg width="57" height="64" viewBox="0 0 57 64" fill="none" xmlns="http://www.w3.org/2000/svg">
<mask id="mask0_814_3258" style="mask-type:alpha" maskUnits="userSpaceOnUse" x="0" y="0" width="57" height="64">
<circle cx="9.98437" cy="26.2685" r="1.12304" fill="black"/>
<circle cx="9.98437" cy="34.1299" r="1.12304" fill="black"/>
<circle cx="9.98437" cy="41.9912" r="1.12304" fill="black"/>
<circle cx="38.0605" cy="26.2685" r="1.12304" fill="black"/>
<circle cx="38.0605" cy="34.1299" r="1.12304" fill="black"/>
<circle cx="24.0225" cy="26.2685" r="1.12304" fill="black"/>
<circle cx="24.0225" cy="34.1299" r="1.12304" fill="black"/>
<circle cx="24.0225" cy="41.9912" r="1.12304" fill="black"/>
<path d="M44.7985 20.466H1M44.7985 33.8521V17.5461C44.7985 13.4579 44.7985 11.4137 44.0029 9.85223C43.303 8.47869 42.1863 7.36197 40.8128 6.66212C39.2513 5.8665 37.2071 5.8665 33.1189 5.8665H12.6796C8.59135 5.8665 6.54723 5.8665 4.98573 6.66212C3.6122 7.36197 2.49548 8.47869 1.79562 9.85223C1 11.4137 1 13.4579 1 17.5461V37.9854C1 42.0736 1 44.1177 1.79562 45.6792C2.49548 47.0528 3.6122 48.1695 4.98573 48.8694C6.54723 49.665 8.59135 49.665 12.6796 49.665H21.8885M32.6322 1V10.733M13.1662 1V10.733" stroke="black" stroke-width="1.97872" stroke-linecap="round" stroke-linejoin="round"/>
<path d="M38.0954 37.3221C38.0954 39.0947 42.0473 40.5318 46.9222 40.5318C51.7971 40.5318 55.749 39.0947 55.749 37.3221M38.0954 37.3221C38.0954 35.5494 42.0473 34.1123 46.9222 34.1123C51.7971 34.1123 55.749 35.5494 55.749 37.3221M38.0954 37.3221V44.4752C40.0558 45.0639 41.3052 45.9546 41.3052 46.9513M55.749 37.3221V56.5805C55.749 58.3532 51.7971 59.7903 46.9222 59.7903C44.7883 59.7903 42.8313 59.5149 41.3052 59.0566V46.9513M55.749 43.7415C55.749 45.5142 51.7971 46.9513 46.9222 46.9513C44.7883 46.9513 42.8313 46.6759 41.3052 46.2176M55.749 50.161C55.749 51.9337 51.7971 53.3708 46.9222 53.3708C44.7883 53.3708 42.8313 53.0954 41.3052 52.6371M23.6516 46.9513C23.6516 48.724 27.6034 50.161 32.4784 50.161C37.3533 50.161 41.3052 48.724 41.3052 46.9513M23.6516 46.9513C23.6516 45.1786 27.6034 43.7415 32.4784 43.7415C37.3533 43.7415 41.3052 45.1786 41.3052 46.9513M23.6516 46.9513V59.7903C23.6516 61.563 27.6034 63 32.4784 63C37.3533 63 41.3052 61.563 41.3052 59.7903V46.9513M23.6516 53.3708C23.6516 55.1435 27.6034 56.5805 32.4784 56.5805C37.3533 56.5805 41.3052 55.1435 41.3052 53.3708" stroke="black" stroke-width="1.97872" stroke-linecap="round" stroke-linejoin="round"/>
</mask>
<g mask="url(#mask0_814_3258)">
<path d="M-19.8145 -11.8809H69.4321V70.9252H-19.8145V-11.8809Z" fill="#3EC57C"/>
</g>
</svg>
