<svg width="66" height="91" viewBox="0 0 66 91" fill="none" xmlns="http://www.w3.org/2000/svg">
<path d="M55.878 46.9753V18.3958C55.878 15.2675 53.342 12.7314 50.2137 12.7314H42.1585M55.878 74.1948V84.3353C55.878 87.4637 53.342 89.9997 50.2137 89.9997H6.66432C3.536 89.9997 1 87.4637 1 84.3353V18.3958C1 15.2674 3.53601 12.7314 6.66433 12.7314H14.7195" stroke="#E3000F" stroke-width="1.25874"/>
<rect x="15.2387" y="6.3364" width="26.3998" height="9.27783" rx="2.51748" stroke="#E3000F" stroke-width="1.25874"/>
<mask id="path-3-inside-1_814_2749" fill="white">
<path d="M22.5117 1.88811C22.5117 0.845337 23.3571 0 24.3998 0H32.4773C33.52 0 34.3654 0.845336 34.3654 1.88811V6.14634H22.5117V1.88811Z"/>
</mask>
<path d="M21.253 1.88811C21.253 0.150153 22.6619 -1.25874 24.3998 -1.25874H32.4773C34.2152 -1.25874 35.6241 0.150153 35.6241 1.88811H33.1066C33.1066 1.54052 32.8248 1.25874 32.4773 1.25874H24.3998C24.0522 1.25874 23.7705 1.54052 23.7705 1.88811H21.253ZM34.3654 6.14634H22.5117H34.3654ZM21.253 6.14634V1.88811C21.253 0.150153 22.6619 -1.25874 24.3998 -1.25874V1.25874C24.0522 1.25874 23.7705 1.54052 23.7705 1.88811V6.14634H21.253ZM32.4773 -1.25874C34.2152 -1.25874 35.6241 0.150153 35.6241 1.88811V6.14634H33.1066V1.88811C33.1066 1.54052 32.8248 1.25874 32.4773 1.25874V-1.25874Z" fill="#E3000F" mask="url(#path-3-inside-1_814_2749)"/>
<circle cx="54.7805" cy="59.927" r="10.131" stroke="#E3000F" stroke-width="1.25024"/>
<path fill-rule="evenodd" clip-rule="evenodd" d="M54.8516 55.082C54.8516 54.7751 54.6028 54.5264 54.2959 54.5264C53.989 54.5264 53.7402 54.7751 53.7402 55.082V60.7023C53.7402 60.7354 53.7431 60.7678 53.7487 60.7993C53.7431 60.8308 53.7402 60.8632 53.7402 60.8963C53.7402 61.2032 53.989 61.4519 54.2959 61.4519H59.9162C60.2231 61.4519 60.4719 61.2032 60.4719 60.8963C60.4719 60.5894 60.2231 60.3406 59.9162 60.3406H54.8516V55.082Z" fill="#E3000F"/>
<path d="M10.6582 36.8779H46.2191" stroke="#E3000F" stroke-width="1.20867" stroke-linecap="round"/>
<path d="M10.6582 45.6582H46.2191" stroke="#E3000F" stroke-width="1.20867" stroke-linecap="round"/>
<path d="M10.6582 55.2188H39.8289" stroke="#E3000F" stroke-width="1.20867" stroke-linecap="round"/>
<path d="M10.6582 63.2188H39.8289" stroke="#E3000F" stroke-width="1.20867" stroke-linecap="round"/>
<path d="M10.6582 72H46.2191" stroke="#E3000F" stroke-width="1.20867" stroke-linecap="round"/>
</svg>
