<svg width="26" height="26" viewBox="0 0 26 26" fill="none" xmlns="http://www.w3.org/2000/svg">
<path d="M5.8 20.1992H5C2.7912 20.1992 1 18.408 1 16.1992C1 13.9904 2.7912 12.1992 5 12.1992H5.8V20.1992Z" stroke="white" stroke-width="2" stroke-miterlimit="10" stroke-linejoin="round"/>
<path d="M20.9992 20.1992H20.1992V12.1992H20.9992C23.208 12.1992 24.9992 13.9904 24.9992 16.1992C24.9992 18.408 23.208 20.1992 20.9992 20.1992Z" stroke="white" stroke-width="2" stroke-miterlimit="10" stroke-linejoin="round"/>
<path d="M4.19922 12.2V9.8C4.19922 4.94 8.13922 1 12.9992 1C17.8592 1 21.7992 4.94 21.7992 9.8V12.2" stroke="white" stroke-width="2" stroke-miterlimit="10" stroke-linejoin="round"/>
<path d="M21.8008 20.1992V23.3992C21.8008 24.2832 21.0848 24.9992 20.2008 24.9992H17.8008" stroke="white" stroke-width="2" stroke-miterlimit="10" stroke-linejoin="round"/>
<path d="M14.5996 25H16.1996" stroke="white" stroke-width="2" stroke-miterlimit="10" stroke-linejoin="round"/>
</svg>
