<svg width="23" height="25" viewBox="0 0 23 25" fill="none" xmlns="http://www.w3.org/2000/svg">
<path d="M11.5 15.8853C7.51714 15.8853 3.97522 17.8084 1.72025 20.7927C1.23492 21.435 0.992251 21.7562 1.00019 22.1902C1.00632 22.5255 1.2169 22.9486 1.48074 23.1556C1.82226 23.4236 2.29552 23.4236 3.24204 23.4236H19.758C20.7045 23.4236 21.1777 23.4236 21.5193 23.1556C21.7831 22.9486 21.9937 22.5255 21.9998 22.1902C22.0078 21.7562 21.7651 21.435 21.2798 20.7927C19.0248 17.8084 15.4829 15.8853 11.5 15.8853Z" stroke="#1D1D1D" stroke-width="1.48111" stroke-linecap="round" stroke-linejoin="round"/>
<path d="M11.5 12.1161C14.6225 12.1161 17.1538 9.58484 17.1538 6.46235C17.1538 3.33987 14.6225 0.808594 11.5 0.808594C8.37752 0.808594 5.84624 3.33987 5.84624 6.46235C5.84624 9.58484 8.37752 12.1161 11.5 12.1161Z" stroke="#1D1D1D" stroke-width="1.48111" stroke-linecap="round" stroke-linejoin="round"/>
</svg>
